<?xml version="1.0"?>
<svg id="Layer_1" data-name="Layer 1" xmlns="http://www.w3.org/2000/svg" viewBox="0 0 810.97 284.54">
  <defs>
    
  </defs>
  <g>
    <rect class="cls-2" x=".25" y=".25" width="261.7" height="90.6"></rect>
    <rect class="cls-2" x=".25" y="96.97" width="261.7" height="90.6"></rect>
    <rect class="cls-2" x=".25" y="193.68" width="261.7" height="90.6"></rect>
  </g>
  <g>
    <rect class="cls-4" x="274.76" y=".25" width="261.7" height="90.6"></rect>
    <rect class="cls-4" x="274.76" y="96.97" width="261.7" height="90.6"></rect>
    <rect class="cls-4" x="274.76" y="193.68" width="261.7" height="90.6"></rect>
  </g>
  <g>
    <rect class="cls-3" x="549.27" y=".25" width="261.7" height="90.6"></rect>
    <rect class="cls-3" x="549.27" y="96.97" width="261.7" height="90.6"></rect>
    <rect class="cls-3" x="549.27" y="193.68" width="261.7" height="90.6"></rect>
  </g>
  <g>
    <path class="cls-3" d="M117.42,40.05v23.21h-5.99v-2.74c-1.67,2.09-4.18,3.39-7.56,3.39-6.17,0-11.28-5.34-11.28-12.26s5.11-12.26,11.28-12.26c3.39,0,5.89,1.3,7.56,3.39v-2.74h5.99Zm-5.99,11.61c0-3.9-2.74-6.55-6.45-6.55s-6.4,2.65-6.4,6.55,2.74,6.55,6.4,6.55,6.45-2.65,6.45-6.55Z"></path>
    <polygon class="cls-3" points="200.73 49.81 200.73 30.76 194.37 30.76 194.37 43.67 182.3 43.67 182.3 30.76 175.89 30.76 175.89 63.25 182.3 63.25 182.3 49.8 200.73 49.81"></polygon>
    <polygon class="cls-4" points="45.41 74.54 62.26 74.55 62.26 68.41 45.41 68.41 45.41 74.54"></polygon>
    <path class="cls-3" d="M29.58,47.02c0-9.52,7.48-16.9,16.86-16.9s16.9,7.38,16.9,16.9-7.52,16.9-16.9,16.9-16.86-7.43-16.86-16.9Zm27.35,0c0-6.27-4.6-10.68-10.49-10.68s-10.49,4.41-10.49,10.68,4.6,10.63,10.49,10.63,10.49-4.41,10.49-10.63Z"></path>
    <path class="cls-3" d="M82.7,40.08v13.46c0,2.13-.83,4.66-4.77,4.66s-4.77-2.53-4.77-4.66v-13.46h-6.03v13.28c0,6.29,4.34,10.52,10.8,10.52s10.84-4.23,10.84-10.52v-13.28h-6.08Z"></path>
    <path class="cls-3" d="M128.54,63.22v-13.46c0-2.13,.83-4.66,4.77-4.66s4.77,2.53,4.77,4.66v13.46h6.03v-13.28c0-6.29-4.34-10.52-10.8-10.52s-10.84,4.23-10.84,10.52v13.28h6.08Z"></path>
    <path class="cls-3" d="M162.41,45.8v-5.76h-8.15v-9.32h-6.07v22.2c0,6.25,4.3,10.46,10.71,10.52,.05,0-1.54,0,3.49,0v-5.67c-5.04,0-3.46,0-3.53,0-3.79-.07-4.59-2.57-4.59-4.66v-7.31h8.14Z"></path>
    <path class="cls-4" d="M209.58,37.78c-1.76,0-3.18,1.42-3.18,3.18v7.55c0,1.76,1.42,3.18,3.18,3.18s3.18-1.42,3.18-3.18v-7.55c0-1.76-1.42-3.18-3.18-3.18Z"></path>
    <path class="cls-4" d="M221.59,27.98c-1.76,0-3.18,1.42-3.18,3.18v7.55c0,1.76,1.42,3.18,3.18,3.18s3.18-1.42,3.18-3.18v-7.55c0-1.76-1.42-3.18-3.18-3.18Z"></path>
    <path class="cls-4" d="M233.59,16.45c-1.76,0-3.18,1.42-3.18,3.18v7.55c0,1.76,1.42,3.18,3.18,3.18s3.18-1.42,3.18-3.18v-7.55c0-1.76-1.42-3.18-3.18-3.18Z"></path>
    <g>
      <path class="cls-4" d="M200.72,54.52c0-1.76-1.42-3.18-3.18-3.18s-3.18,1.42-3.18,3.18v8.73h6.36v-8.73Z"></path>
      <path class="cls-3" d="M212.73,51.39c-.65,1.08-1.83,1.81-3.18,1.81s-2.53-.73-3.18-1.81v11.86h6.36v-11.86Z"></path>
      <path class="cls-3" d="M224.73,41.58c-.65,1.08-1.83,1.81-3.18,1.81s-2.53-.73-3.18-1.81v21.67h6.36v-21.67Z"></path>
      <path class="cls-3" d="M236.73,30.07c-.65,1.08-1.83,1.81-3.18,1.81s-2.53-.73-3.18-1.8V63.25h6.36V30.07Z"></path>
    </g>
  </g>
  <g>
    <path class="cls-1" d="M662.25,40.05v23.21h-5.99v-2.74c-1.67,2.09-4.18,3.39-7.56,3.39-6.17,0-11.28-5.34-11.28-12.26s5.11-12.26,11.28-12.26c3.39,0,5.89,1.3,7.56,3.39v-2.74h5.99Zm-5.99,11.61c0-3.9-2.74-6.55-6.45-6.55s-6.4,2.65-6.4,6.55,2.74,6.55,6.4,6.55,6.45-2.65,6.45-6.55Z"></path>
    <polygon class="cls-1" points="745.56 49.81 745.56 30.76 739.2 30.76 739.2 43.67 727.13 43.67 727.13 30.76 720.72 30.76 720.72 63.25 727.13 63.25 727.13 49.8 745.56 49.81"></polygon>
    <polygon class="cls-4" points="590.24 74.54 607.09 74.55 607.09 68.41 590.24 68.41 590.24 74.54"></polygon>
    <path class="cls-1" d="M574.41,47.02c0-9.52,7.48-16.9,16.86-16.9s16.9,7.38,16.9,16.9-7.52,16.9-16.9,16.9-16.86-7.43-16.86-16.9Zm27.35,0c0-6.27-4.6-10.68-10.49-10.68s-10.49,4.41-10.49,10.68,4.6,10.63,10.49,10.63,10.49-4.41,10.49-10.63Z"></path>
    <path class="cls-1" d="M627.53,40.08v13.46c0,2.13-.83,4.66-4.77,4.66s-4.77-2.53-4.77-4.66v-13.46h-6.03v13.28c0,6.29,4.34,10.52,10.8,10.52s10.84-4.23,10.84-10.52v-13.28h-6.08Z"></path>
    <path class="cls-1" d="M673.37,63.22v-13.46c0-2.13,.83-4.66,4.77-4.66s4.77,2.53,4.77,4.66v13.46h6.03v-13.28c0-6.29-4.34-10.52-10.8-10.52s-10.84,4.23-10.84,10.52v13.28h6.08Z"></path>
    <path class="cls-1" d="M707.24,45.8v-5.76h-8.15v-9.32h-6.07v22.2c0,6.25,4.3,10.46,10.71,10.52,.05,0-1.54,0,3.49,0v-5.67c-5.04,0-3.46,0-3.53,0-3.79-.07-4.59-2.57-4.59-4.66v-7.31h8.14Z"></path>
    <path class="cls-4" d="M754.41,37.78c-1.76,0-3.18,1.42-3.18,3.18v7.55c0,1.76,1.42,3.18,3.18,3.18s3.18-1.42,3.18-3.18v-7.55c0-1.76-1.42-3.18-3.18-3.18Z"></path>
    <path class="cls-4" d="M766.41,27.98c-1.76,0-3.18,1.42-3.18,3.18v7.55c0,1.76,1.42,3.18,3.18,3.18s3.18-1.42,3.18-3.18v-7.55c0-1.76-1.42-3.18-3.18-3.18Z"></path>
    <path class="cls-4" d="M778.42,16.45c-1.76,0-3.18,1.42-3.18,3.18v7.55c0,1.76,1.42,3.18,3.18,3.18s3.18-1.42,3.18-3.18v-7.55c0-1.76-1.42-3.18-3.18-3.18Z"></path>
    <g>
      <path class="cls-4" d="M745.55,54.52c0-1.76-1.42-3.18-3.18-3.18s-3.18,1.42-3.18,3.18v8.73h6.36v-8.73Z"></path>
      <path class="cls-1" d="M757.56,51.39c-.65,1.08-1.83,1.81-3.18,1.81s-2.53-.73-3.18-1.81v11.86h6.36v-11.86Z"></path>
      <path class="cls-1" d="M769.56,41.58c-.65,1.08-1.83,1.81-3.18,1.81s-2.53-.73-3.18-1.81v21.67h6.36v-21.67Z"></path>
      <path class="cls-1" d="M781.56,30.07c-.65,1.08-1.83,1.81-3.18,1.81s-2.53-.73-3.18-1.8V63.25h6.36V30.07Z"></path>
    </g>
  </g>
  <g>
    <path class="cls-3" d="M389.83,40.05v23.21h-5.99v-2.74c-1.67,2.09-4.18,3.39-7.56,3.39-6.17,0-11.28-5.34-11.28-12.26s5.11-12.26,11.28-12.26c3.39,0,5.89,1.3,7.56,3.39v-2.74h5.99Zm-5.99,11.61c0-3.9-2.74-6.55-6.45-6.55s-6.4,2.65-6.4,6.55,2.74,6.55,6.4,6.55,6.45-2.65,6.45-6.55Z"></path>
    <polygon class="cls-3" points="473.15 49.81 473.15 30.76 466.78 30.76 466.78 43.67 454.72 43.67 454.72 30.76 448.31 30.76 448.31 63.25 454.72 63.25 454.72 49.8 473.15 49.81"></polygon>
    <polygon class="cls-1" points="317.82 74.54 334.67 74.55 334.67 68.41 317.82 68.41 317.82 74.54"></polygon>
    <path class="cls-3" d="M301.99,47.02c0-9.52,7.48-16.9,16.86-16.9s16.9,7.38,16.9,16.9-7.52,16.9-16.9,16.9-16.86-7.43-16.86-16.9Zm27.35,0c0-6.27-4.6-10.68-10.49-10.68s-10.49,4.41-10.49,10.68,4.6,10.63,10.49,10.63,10.49-4.41,10.49-10.63Z"></path>
    <path class="cls-3" d="M355.11,40.08v13.46c0,2.13-.83,4.66-4.77,4.66s-4.77-2.53-4.77-4.66v-13.46h-6.03v13.28c0,6.29,4.34,10.52,10.8,10.52s10.84-4.23,10.84-10.52v-13.28h-6.08Z"></path>
    <path class="cls-3" d="M400.95,63.22v-13.46c0-2.13,.83-4.66,4.77-4.66s4.77,2.53,4.77,4.66v13.46h6.03v-13.28c0-6.29-4.34-10.52-10.8-10.52s-10.84,4.23-10.84,10.52v13.28h6.08Z"></path>
    <path class="cls-3" d="M434.83,45.8v-5.76h-8.15v-9.32h-6.07v22.2c0,6.25,4.3,10.46,10.71,10.52,.05,0-1.54,0,3.49,0v-5.67c-5.04,0-3.46,0-3.53,0-3.79-.07-4.59-2.57-4.59-4.66v-7.31h8.14Z"></path>
    <path class="cls-1" d="M482,37.78c-1.76,0-3.18,1.42-3.18,3.18v7.55c0,1.76,1.42,3.18,3.18,3.18s3.18-1.42,3.18-3.18v-7.55c0-1.76-1.42-3.18-3.18-3.18Z"></path>
    <path class="cls-1" d="M494,27.98c-1.76,0-3.18,1.42-3.18,3.18v7.55c0,1.76,1.42,3.18,3.18,3.18s3.18-1.42,3.18-3.18v-7.55c0-1.76-1.42-3.18-3.18-3.18Z"></path>
    <path class="cls-1" d="M506,16.45c-1.76,0-3.18,1.42-3.18,3.18v7.55c0,1.76,1.42,3.18,3.18,3.18s3.18-1.42,3.18-3.18v-7.55c0-1.76-1.42-3.18-3.18-3.18Z"></path>
    <g>
      <path class="cls-1" d="M473.14,54.52c0-1.76-1.42-3.18-3.18-3.18s-3.18,1.42-3.18,3.18v8.73h6.36v-8.73Z"></path>
      <path class="cls-3" d="M485.14,51.39c-.65,1.08-1.83,1.81-3.18,1.81s-2.53-.73-3.18-1.81v11.86h6.36v-11.86Z"></path>
      <path class="cls-3" d="M497.14,41.58c-.65,1.08-1.83,1.81-3.18,1.81s-2.53-.73-3.18-1.81v21.67h6.36v-21.67Z"></path>
      <path class="cls-3" d="M509.15,30.07c-.65,1.08-1.83,1.81-3.18,1.81s-2.53-.73-3.18-1.8V63.25h6.36V30.07Z"></path>
    </g>
  </g>
  <g>
    <path class="cls-3" d="M113.45,137.34v23.21h-5.99v-2.74c-1.67,2.09-4.18,3.39-7.56,3.39-6.17,0-11.28-5.34-11.28-12.26s5.11-12.26,11.28-12.26c3.39,0,5.89,1.3,7.56,3.39v-2.74h5.99Zm-5.99,11.61c0-3.9-2.74-6.55-6.45-6.55s-6.4,2.65-6.4,6.55,2.74,6.55,6.4,6.55,6.45-2.65,6.45-6.55Z"></path>
    <polygon class="cls-3" points="196.76 147.1 196.76 128.06 190.4 128.06 190.4 140.96 178.33 140.96 178.33 128.06 171.92 128.06 171.92 160.55 178.33 160.55 178.33 147.09 196.76 147.1"></polygon>
    <polygon class="cls-3" points="41.44 171.83 58.29 171.84 58.29 165.7 41.44 165.7 41.44 171.83"></polygon>
    <path class="cls-3" d="M25.61,144.31c0-9.52,7.48-16.9,16.86-16.9s16.9,7.38,16.9,16.9-7.52,16.9-16.9,16.9-16.86-7.43-16.86-16.9Zm27.35,0c0-6.27-4.6-10.68-10.49-10.68s-10.49,4.41-10.49,10.68,4.6,10.63,10.49,10.63,10.49-4.41,10.49-10.63Z"></path>
    <path class="cls-3" d="M78.73,137.37v13.46c0,2.13-.83,4.66-4.77,4.66s-4.77-2.53-4.77-4.66v-13.46h-6.03v13.28c0,6.29,4.34,10.52,10.8,10.52s10.84-4.23,10.84-10.52v-13.28h-6.08Z"></path>
    <path class="cls-3" d="M124.57,160.51v-13.46c0-2.13,.83-4.66,4.77-4.66s4.77,2.53,4.77,4.66v13.46h6.03v-13.28c0-6.29-4.34-10.52-10.8-10.52s-10.84,4.23-10.84,10.52v13.28h6.08Z"></path>
    <path class="cls-3" d="M158.44,143.09v-5.76h-8.15v-9.32h-6.07v22.2c0,6.25,4.3,10.46,10.71,10.52,.05,0-1.54,0,3.49,0v-5.67c-5.04,0-3.46,0-3.53,0-3.79-.07-4.59-2.57-4.59-4.66v-7.31h8.14Z"></path>
    <path class="cls-3" d="M205.61,135.07c-1.76,0-3.18,1.42-3.18,3.18v7.55c0,1.76,1.42,3.18,3.18,3.18s3.18-1.42,3.18-3.18v-7.55c0-1.76-1.42-3.18-3.18-3.18Z"></path>
    <path class="cls-3" d="M217.62,125.27c-1.76,0-3.18,1.42-3.18,3.18v7.55c0,1.76,1.42,3.18,3.18,3.18s3.18-1.42,3.18-3.18v-7.55c0-1.76-1.42-3.18-3.18-3.18Z"></path>
    <path class="cls-3" d="M229.62,113.75c-1.76,0-3.18,1.42-3.18,3.18v7.55c0,1.76,1.42,3.18,3.18,3.18s3.18-1.42,3.18-3.18v-7.55c0-1.76-1.42-3.18-3.18-3.18Z"></path>
    <g>
      <path class="cls-3" d="M196.76,151.82c0-1.76-1.42-3.18-3.18-3.18s-3.18,1.42-3.18,3.18v8.73h6.36v-8.73Z"></path>
      <path class="cls-3" d="M208.76,148.69c-.65,1.08-1.83,1.81-3.18,1.81s-2.53-.73-3.18-1.81v11.86h6.36v-11.86Z"></path>
      <path class="cls-3" d="M220.76,138.87c-.65,1.08-1.83,1.81-3.18,1.81s-2.53-.73-3.18-1.81v21.67h6.36v-21.67Z"></path>
      <path class="cls-3" d="M232.76,127.36c-.65,1.08-1.83,1.81-3.18,1.81s-2.53-.73-3.18-1.8v33.18h6.36v-33.19Z"></path>
    </g>
  </g>
  <g>
    <path class="cls-4" d="M113.45,231.79v23.21h-5.99v-2.74c-1.67,2.09-4.18,3.39-7.56,3.39-6.17,0-11.28-5.34-11.28-12.26s5.11-12.26,11.28-12.26c3.39,0,5.89,1.3,7.56,3.39v-2.74h5.99Zm-5.99,11.61c0-3.9-2.74-6.55-6.45-6.55s-6.4,2.65-6.4,6.55,2.74,6.55,6.4,6.55,6.45-2.65,6.45-6.55Z"></path>
    <polygon class="cls-4" points="196.76 241.55 196.76 222.51 190.4 222.51 190.4 235.41 178.33 235.41 178.33 222.51 171.92 222.51 171.92 255 178.33 255 178.33 241.54 196.76 241.55"></polygon>
    <polygon class="cls-4" points="41.44 266.28 58.29 266.29 58.29 260.15 41.44 260.15 41.44 266.28"></polygon>
    <path class="cls-4" d="M25.61,238.76c0-9.52,7.48-16.9,16.86-16.9s16.9,7.38,16.9,16.9-7.52,16.9-16.9,16.9-16.86-7.43-16.86-16.9Zm27.35,0c0-6.27-4.6-10.68-10.49-10.68s-10.49,4.41-10.49,10.68,4.6,10.63,10.49,10.63,10.49-4.41,10.49-10.63Z"></path>
    <path class="cls-4" d="M78.73,231.83v13.46c0,2.13-.83,4.66-4.77,4.66s-4.77-2.53-4.77-4.66v-13.46h-6.03v13.28c0,6.29,4.34,10.52,10.8,10.52s10.84-4.23,10.84-10.52v-13.28h-6.08Z"></path>
    <path class="cls-4" d="M124.57,254.97v-13.46c0-2.13,.83-4.66,4.77-4.66s4.77,2.53,4.77,4.66v13.46h6.03v-13.28c0-6.29-4.34-10.52-10.8-10.52s-10.84,4.23-10.84,10.52v13.28h6.08Z"></path>
    <path class="cls-4" d="M158.44,237.55v-5.76h-8.15v-9.32h-6.07v22.2c0,6.25,4.3,10.46,10.71,10.52,.05,0-1.54,0,3.49,0v-5.67c-5.04,0-3.46,0-3.53,0-3.79-.07-4.59-2.57-4.59-4.66v-7.31h8.14Z"></path>
    <path class="cls-4" d="M205.61,229.53c-1.76,0-3.18,1.42-3.18,3.18v7.55c0,1.76,1.42,3.18,3.18,3.18s3.18-1.42,3.18-3.18v-7.55c0-1.76-1.42-3.18-3.18-3.18Z"></path>
    <path class="cls-4" d="M217.62,219.72c-1.76,0-3.18,1.42-3.18,3.18v7.55c0,1.76,1.42,3.18,3.18,3.18s3.18-1.42,3.18-3.18v-7.55c0-1.76-1.42-3.18-3.18-3.18Z"></path>
    <path class="cls-4" d="M229.62,208.2c-1.76,0-3.18,1.42-3.18,3.18v7.55c0,1.76,1.42,3.18,3.18,3.18s3.18-1.42,3.18-3.18v-7.55c0-1.76-1.42-3.18-3.18-3.18Z"></path>
    <g>
      <path class="cls-4" d="M196.76,246.27c0-1.76-1.42-3.18-3.18-3.18s-3.18,1.42-3.18,3.18v8.73h6.36v-8.73Z"></path>
      <path class="cls-4" d="M208.76,243.14c-.65,1.08-1.83,1.81-3.18,1.81s-2.53-.73-3.18-1.81v11.86h6.36v-11.86Z"></path>
      <path class="cls-4" d="M220.76,233.33c-.65,1.08-1.83,1.81-3.18,1.81s-2.53-.73-3.18-1.81v21.67h6.36v-21.67Z"></path>
      <path class="cls-4" d="M232.76,221.81c-.65,1.08-1.83,1.81-3.18,1.81s-2.53-.73-3.18-1.8v33.18h6.36v-33.19Z"></path>
    </g>
  </g>
  <g>
    <path class="cls-3" d="M389.61,137.34v23.21h-5.99v-2.74c-1.67,2.09-4.18,3.39-7.56,3.39-6.17,0-11.28-5.34-11.28-12.26s5.11-12.26,11.28-12.26c3.39,0,5.89,1.3,7.56,3.39v-2.74h5.99Zm-5.99,11.61c0-3.9-2.74-6.55-6.45-6.55s-6.4,2.65-6.4,6.55,2.74,6.55,6.4,6.55,6.45-2.65,6.45-6.55Z"></path>
    <polygon class="cls-3" points="472.93 147.1 472.93 128.06 466.56 128.06 466.56 140.96 454.5 140.96 454.5 128.06 448.09 128.06 448.09 160.55 454.5 160.55 454.5 147.09 472.93 147.1"></polygon>
    <polygon class="cls-3" points="317.6 171.83 334.45 171.84 334.45 165.7 317.6 165.7 317.6 171.83"></polygon>
    <path class="cls-3" d="M301.77,144.31c0-9.52,7.48-16.9,16.86-16.9s16.9,7.38,16.9,16.9-7.52,16.9-16.9,16.9-16.86-7.43-16.86-16.9Zm27.35,0c0-6.27-4.6-10.68-10.49-10.68s-10.49,4.41-10.49,10.68,4.6,10.63,10.49,10.63,10.49-4.41,10.49-10.63Z"></path>
    <path class="cls-3" d="M354.89,137.37v13.46c0,2.13-.83,4.66-4.77,4.66s-4.77-2.53-4.77-4.66v-13.46h-6.03v13.28c0,6.29,4.34,10.52,10.8,10.52s10.84-4.23,10.84-10.52v-13.28h-6.08Z"></path>
    <path class="cls-3" d="M400.73,160.51v-13.46c0-2.13,.83-4.66,4.77-4.66s4.77,2.53,4.77,4.66v13.46h6.03v-13.28c0-6.29-4.34-10.52-10.8-10.52s-10.84,4.23-10.84,10.52v13.28h6.08Z"></path>
    <path class="cls-3" d="M434.61,143.09v-5.76h-8.15v-9.32h-6.07v22.2c0,6.25,4.3,10.46,10.71,10.52,.05,0-1.54,0,3.49,0v-5.67c-5.04,0-3.46,0-3.53,0-3.79-.07-4.59-2.57-4.59-4.66v-7.31h8.14Z"></path>
    <path class="cls-3" d="M481.78,135.07c-1.76,0-3.18,1.42-3.18,3.18v7.55c0,1.76,1.42,3.18,3.18,3.18s3.18-1.42,3.18-3.18v-7.55c0-1.76-1.42-3.18-3.18-3.18Z"></path>
    <path class="cls-3" d="M493.78,125.27c-1.76,0-3.18,1.42-3.18,3.18v7.55c0,1.76,1.42,3.18,3.18,3.18s3.18-1.42,3.18-3.18v-7.55c0-1.76-1.42-3.18-3.18-3.18Z"></path>
    <path class="cls-3" d="M505.78,113.75c-1.76,0-3.18,1.42-3.18,3.18v7.55c0,1.76,1.42,3.18,3.18,3.18s3.18-1.42,3.18-3.18v-7.55c0-1.76-1.42-3.18-3.18-3.18Z"></path>
    <g>
      <path class="cls-3" d="M472.92,151.82c0-1.76-1.42-3.18-3.18-3.18s-3.18,1.42-3.18,3.18v8.73h6.36v-8.73Z"></path>
      <path class="cls-3" d="M484.92,148.69c-.65,1.08-1.83,1.81-3.18,1.81s-2.53-.73-3.18-1.81v11.86h6.36v-11.86Z"></path>
      <path class="cls-3" d="M496.93,138.87c-.65,1.08-1.83,1.81-3.18,1.81s-2.53-.73-3.18-1.81v21.67h6.36v-21.67Z"></path>
      <path class="cls-3" d="M508.93,127.36c-.65,1.08-1.83,1.81-3.18,1.81s-2.53-.73-3.18-1.8v33.18h6.36v-33.19Z"></path>
    </g>
  </g>
  <g>
    <path class="cls-1" d="M665.78,137.34v23.21h-5.99v-2.74c-1.67,2.09-4.18,3.39-7.56,3.39-6.17,0-11.28-5.34-11.28-12.26s5.11-12.26,11.28-12.26c3.39,0,5.89,1.3,7.56,3.39v-2.74h5.99Zm-5.99,11.61c0-3.9-2.74-6.55-6.45-6.55s-6.4,2.65-6.4,6.55,2.74,6.55,6.4,6.55,6.45-2.65,6.45-6.55Z"></path>
    <polygon class="cls-1" points="749.09 147.1 749.09 128.06 742.73 128.06 742.73 140.96 730.66 140.96 730.66 128.06 724.25 128.06 724.25 160.55 730.66 160.55 730.66 147.09 749.09 147.1"></polygon>
    <polygon class="cls-1" points="593.77 171.83 610.62 171.84 610.62 165.7 593.77 165.7 593.77 171.83"></polygon>
    <path class="cls-1" d="M577.94,144.31c0-9.52,7.48-16.9,16.86-16.9s16.9,7.38,16.9,16.9-7.52,16.9-16.9,16.9-16.86-7.43-16.86-16.9Zm27.35,0c0-6.27-4.6-10.68-10.49-10.68s-10.49,4.41-10.49,10.68,4.6,10.63,10.49,10.63,10.49-4.41,10.49-10.63Z"></path>
    <path class="cls-1" d="M631.06,137.37v13.46c0,2.13-.83,4.66-4.77,4.66s-4.77-2.53-4.77-4.66v-13.46h-6.03v13.28c0,6.29,4.34,10.52,10.8,10.52s10.84-4.23,10.84-10.52v-13.28h-6.08Z"></path>
    <path class="cls-1" d="M676.9,160.51v-13.46c0-2.13,.83-4.66,4.77-4.66s4.77,2.53,4.77,4.66v13.46h6.03v-13.28c0-6.29-4.34-10.52-10.8-10.52s-10.84,4.23-10.84,10.52v13.28h6.08Z"></path>
    <path class="cls-1" d="M710.77,143.09v-5.76h-8.15v-9.32h-6.07v22.2c0,6.25,4.3,10.46,10.71,10.52,.05,0-1.54,0,3.49,0v-5.67c-5.04,0-3.46,0-3.53,0-3.79-.07-4.59-2.57-4.59-4.66v-7.31h8.14Z"></path>
    <path class="cls-1" d="M757.94,135.07c-1.76,0-3.18,1.42-3.18,3.18v7.55c0,1.76,1.42,3.18,3.18,3.18s3.18-1.42,3.18-3.18v-7.55c0-1.76-1.42-3.18-3.18-3.18Z"></path>
    <path class="cls-1" d="M769.94,125.27c-1.76,0-3.18,1.42-3.18,3.18v7.55c0,1.76,1.42,3.18,3.18,3.18s3.18-1.42,3.18-3.18v-7.55c0-1.76-1.42-3.18-3.18-3.18Z"></path>
    <path class="cls-1" d="M781.95,113.75c-1.76,0-3.18,1.42-3.18,3.18v7.55c0,1.76,1.42,3.18,3.18,3.18s3.18-1.42,3.18-3.18v-7.55c0-1.76-1.42-3.18-3.18-3.18Z"></path>
    <g>
      <path class="cls-1" d="M749.08,151.82c0-1.76-1.42-3.18-3.18-3.18s-3.18,1.42-3.18,3.18v8.73h6.36v-8.73Z"></path>
      <path class="cls-1" d="M761.09,148.69c-.65,1.08-1.83,1.81-3.18,1.81s-2.53-.73-3.18-1.81v11.86h6.36v-11.86Z"></path>
      <path class="cls-1" d="M773.09,138.87c-.65,1.08-1.83,1.81-3.18,1.81s-2.53-.73-3.18-1.81v21.67h6.36v-21.67Z"></path>
      <path class="cls-1" d="M785.09,127.36c-.65,1.08-1.83,1.81-3.18,1.81s-2.53-.73-3.18-1.8v33.18h6.36v-33.19Z"></path>
    </g>
  </g>
  <g>
    <path class="cls-1" d="M393.97,231.79v23.21h-5.99v-2.74c-1.67,2.09-4.18,3.39-7.56,3.39-6.17,0-11.28-5.34-11.28-12.26s5.11-12.26,11.28-12.26c3.39,0,5.89,1.3,7.56,3.39v-2.74h5.99Zm-5.99,11.61c0-3.9-2.74-6.55-6.45-6.55s-6.4,2.65-6.4,6.55,2.74,6.55,6.4,6.55,6.45-2.65,6.45-6.55Z"></path>
    <polygon class="cls-1" points="477.29 241.55 477.29 222.51 470.92 222.51 470.92 235.41 458.86 235.41 458.86 222.51 452.45 222.51 452.45 255 458.86 255 458.86 241.54 477.29 241.55"></polygon>
    <polygon class="cls-1" points="321.96 266.28 338.81 266.29 338.81 260.15 321.96 260.15 321.96 266.28"></polygon>
    <path class="cls-1" d="M306.13,238.76c0-9.52,7.48-16.9,16.86-16.9s16.9,7.38,16.9,16.9-7.52,16.9-16.9,16.9-16.86-7.43-16.86-16.9Zm27.35,0c0-6.27-4.6-10.68-10.49-10.68s-10.49,4.41-10.49,10.68,4.6,10.63,10.49,10.63,10.49-4.41,10.49-10.63Z"></path>
    <path class="cls-1" d="M359.25,231.83v13.46c0,2.13-.83,4.66-4.77,4.66s-4.77-2.53-4.77-4.66v-13.46h-6.03v13.28c0,6.29,4.34,10.52,10.8,10.52s10.84-4.23,10.84-10.52v-13.28h-6.08Z"></path>
    <path class="cls-1" d="M405.09,254.97v-13.46c0-2.13,.83-4.66,4.77-4.66s4.77,2.53,4.77,4.66v13.46h6.03v-13.28c0-6.29-4.34-10.52-10.8-10.52s-10.84,4.23-10.84,10.52v13.28h6.08Z"></path>
    <path class="cls-1" d="M438.96,237.55v-5.76h-8.15v-9.32h-6.07v22.2c0,6.25,4.3,10.46,10.71,10.52,.05,0-1.54,0,3.49,0v-5.67c-5.04,0-3.46,0-3.53,0-3.79-.07-4.59-2.57-4.59-4.66v-7.31h8.14Z"></path>
    <path class="cls-1" d="M486.13,229.53c-1.76,0-3.18,1.42-3.18,3.18v7.55c0,1.76,1.42,3.18,3.18,3.18s3.18-1.42,3.18-3.18v-7.55c0-1.76-1.42-3.18-3.18-3.18Z"></path>
    <path class="cls-1" d="M498.14,219.72c-1.76,0-3.18,1.42-3.18,3.18v7.55c0,1.76,1.42,3.18,3.18,3.18s3.18-1.42,3.18-3.18v-7.55c0-1.76-1.42-3.18-3.18-3.18Z"></path>
    <path class="cls-1" d="M510.14,208.2c-1.76,0-3.18,1.42-3.18,3.18v7.55c0,1.76,1.42,3.18,3.18,3.18s3.18-1.42,3.18-3.18v-7.55c0-1.76-1.42-3.18-3.18-3.18Z"></path>
    <g>
      <path class="cls-1" d="M477.28,246.27c0-1.76-1.42-3.18-3.18-3.18s-3.18,1.42-3.18,3.18v8.73h6.36v-8.73Z"></path>
      <path class="cls-1" d="M489.28,243.14c-.65,1.08-1.83,1.81-3.18,1.81s-2.53-.73-3.18-1.81v11.86h6.36v-11.86Z"></path>
      <path class="cls-1" d="M501.28,233.33c-.65,1.08-1.83,1.81-3.18,1.81s-2.53-.73-3.18-1.81v21.67h6.36v-21.67Z"></path>
      <path class="cls-1" d="M513.29,221.81c-.65,1.08-1.83,1.81-3.18,1.81s-2.53-.73-3.18-1.8v33.18h6.36v-33.19Z"></path>
    </g>
  </g>
  <g>
    <path class="cls-4" d="M665.17,231.79v23.21h-5.99v-2.74c-1.67,2.09-4.18,3.39-7.56,3.39-6.17,0-11.28-5.34-11.28-12.26s5.11-12.26,11.28-12.26c3.39,0,5.89,1.3,7.56,3.39v-2.74h5.99Zm-5.99,11.61c0-3.9-2.74-6.55-6.45-6.55s-6.4,2.65-6.4,6.55,2.74,6.55,6.4,6.55,6.45-2.65,6.45-6.55Z"></path>
    <polygon class="cls-4" points="748.48 241.55 748.48 222.51 742.12 222.51 742.12 235.41 730.05 235.41 730.05 222.51 723.64 222.51 723.64 255 730.05 255 730.05 241.54 748.48 241.55"></polygon>
    <polygon class="cls-4" points="593.16 266.28 610.01 266.29 610.01 260.15 593.16 260.15 593.16 266.28"></polygon>
    <path class="cls-4" d="M577.33,238.76c0-9.52,7.48-16.9,16.86-16.9s16.9,7.38,16.9,16.9-7.52,16.9-16.9,16.9-16.86-7.43-16.86-16.9Zm27.35,0c0-6.27-4.6-10.68-10.49-10.68s-10.49,4.41-10.49,10.68,4.6,10.63,10.49,10.63,10.49-4.41,10.49-10.63Z"></path>
    <path class="cls-4" d="M630.45,231.83v13.46c0,2.13-.83,4.66-4.77,4.66s-4.77-2.53-4.77-4.66v-13.46h-6.03v13.28c0,6.29,4.34,10.52,10.8,10.52s10.84-4.23,10.84-10.52v-13.28h-6.08Z"></path>
    <path class="cls-4" d="M676.29,254.97v-13.46c0-2.13,.83-4.66,4.77-4.66s4.77,2.53,4.77,4.66v13.46h6.03v-13.28c0-6.29-4.34-10.52-10.8-10.52s-10.84,4.23-10.84,10.52v13.28h6.08Z"></path>
    <path class="cls-4" d="M710.16,237.55v-5.76h-8.15v-9.32h-6.07v22.2c0,6.25,4.3,10.46,10.71,10.52,.05,0-1.54,0,3.49,0v-5.67c-5.04,0-3.46,0-3.53,0-3.79-.07-4.59-2.57-4.59-4.66v-7.31h8.14Z"></path>
    <path class="cls-4" d="M757.33,229.53c-1.76,0-3.18,1.42-3.18,3.18v7.55c0,1.76,1.42,3.18,3.18,3.18s3.18-1.42,3.18-3.18v-7.55c0-1.76-1.42-3.18-3.18-3.18Z"></path>
    <path class="cls-4" d="M769.34,219.72c-1.76,0-3.18,1.42-3.18,3.18v7.55c0,1.76,1.42,3.18,3.18,3.18s3.18-1.42,3.18-3.18v-7.55c0-1.76-1.42-3.18-3.18-3.18Z"></path>
    <path class="cls-4" d="M781.34,208.2c-1.76,0-3.18,1.42-3.18,3.18v7.55c0,1.76,1.42,3.18,3.18,3.18s3.18-1.42,3.18-3.18v-7.55c0-1.76-1.42-3.18-3.18-3.18Z"></path>
    <g>
      <path class="cls-4" d="M748.48,246.27c0-1.76-1.42-3.18-3.18-3.18s-3.18,1.42-3.18,3.18v8.73h6.36v-8.73Z"></path>
      <path class="cls-4" d="M760.48,243.14c-.65,1.08-1.83,1.81-3.18,1.81s-2.53-.73-3.18-1.81v11.86h6.36v-11.86Z"></path>
      <path class="cls-4" d="M772.48,233.33c-.65,1.08-1.83,1.81-3.18,1.81s-2.53-.73-3.18-1.81v21.67h6.36v-21.67Z"></path>
      <path class="cls-4" d="M784.48,221.81c-.65,1.08-1.83,1.81-3.18,1.81s-2.53-.73-3.18-1.8v33.18h6.36v-33.19Z"></path>
    </g>
  </g>
</svg>